<?xml version="1.0" encoding="UTF-8" standalone="no"?>
<svg width="300pt" height="61.77792pt" viewBox="0 0 299.99999 61.77792" version="1.2" id="svg1037" sodipodi:docname="Fachhochschule Kiel Logo 22.03.2022.svg" inkscape:version="1.1.1 (3bf5ae0d25, 2021-09-20)" xmlns:inkscape="http://www.inkscape.org/namespaces/inkscape" xmlns:sodipodi="http://sodipodi.sourceforge.net/DTD/sodipodi-0.dtd" xmlns="http://www.w3.org/2000/svg" xmlns:svg="http://www.w3.org/2000/svg">
  <sodipodi:namedview id="namedview1039" pagecolor="#ffffff" bordercolor="#111111" borderopacity="1" inkscape:pageshadow="0" inkscape:pageopacity="0" inkscape:pagecheckerboard="1" inkscape:document-units="pt" showgrid="false" inkscape:zoom="3.4674988" inkscape:cx="178.08225" inkscape:cy="54.36195" inkscape:window-width="1600" inkscape:window-height="829" inkscape:window-x="-8" inkscape:window-y="-8" inkscape:window-maximized="1" inkscape:current-layer="svg1037"/>
  <defs id="defs688"/>
  <path style="fill:#002e5c;fill-opacity:1;fill-rule:nonzero;stroke:none;stroke-width:2.1796" d="M 12.35388,37.061642 H 0 V 49.424037 H 12.35388 L 24.71627,37.061642 V 24.707761 Z m 0,0" id="path698"/>
  <path style="fill:#002e5c;fill-opacity:1;fill-rule:nonzero;stroke:none;stroke-width:2.1796" d="M 24.71627,49.415521 H 12.36238 V 61.777918 H 24.71627 L 37.07015,49.415521 V 37.061642 Z m 0,0" id="path700"/>
  <path style="fill:#002e5c;fill-opacity:1;fill-rule:nonzero;stroke:none;stroke-width:2.1796" d="M 24.71627,0 12.36238,12.353879 H 0 V 24.707761 H 12.36238 L 24.71627,12.353879 Z m 0,0" id="path702"/>
  <path style="fill:#002e5c;fill-opacity:1;fill-rule:nonzero;stroke:none;stroke-width:2.1796" d="M 49.42403,0 37.07015,12.353879 H 24.71627 V 24.707761 H 37.07015 L 49.42403,12.353879 Z m 0,0" id="path704"/>
  <path style="fill:#002e5c;fill-opacity:1;fill-rule:nonzero;stroke:none;stroke-width:2.1796" d="M 61.78642,24.707761 V 12.353879 L 49.43253,24.707761 H 37.07015 v 12.362394 h 12.36238 z m 0,0" id="path706"/>
  <path style="fill:#002e5c;fill-opacity:1;fill-rule:nonzero;stroke:none;stroke-width:2.1796" d="M 49.42403,49.415521 H 37.07015 V 61.777918 H 49.42403 L 61.78642,49.415521 V 37.061642 Z m 0,0" id="path708"/>
  <path style="fill:#002e5c;fill-opacity:1;fill-rule:nonzero;stroke:none;stroke-width:2.1796" d="m 77.44376,28.581652 c 0,0.434217 -0.0767,0.510843 -0.48531,0.510843 h -2.29879 c -0.40868,0 -0.51084,-0.07663 -0.51084,-0.510843 v -15.67436 c 0,-0.434215 0.10223,-0.502327 0.51084,-0.502327 h 7.99469 c 0.48531,0 0.61301,0.04257 0.61301,0.263936 0,0.119202 -0.0255,0.17027 -0.0765,0.340561 l -0.45977,1.634697 c -0.10229,0.357589 -0.36621,0.391645 -0.56203,0.391645 h -4.7253 v 4.01863 h 4.13781 c 0.44274,0 0.51086,0.06811 0.51086,0.510843 v 1.609154 c 0,0.434217 -0.0937,0.510843 -0.51086,0.510843 h -4.13781 z m 0,0" id="path710"/>
  <path style="fill:#002e5c;fill-opacity:1;fill-rule:nonzero;stroke:none;stroke-width:2.1796" d="m 92.06238,29.407514 c -0.10223,0.02555 -0.22136,0.102158 -0.32354,0.102158 -0.21295,0 -0.57895,-0.859919 -0.70667,-1.464416 -0.48529,0.4853 -1.3367,1.464416 -3.15871,1.464416 -2.24771,0 -3.66103,-1.464416 -3.66103,-3.754694 0,-4.120798 4.43581,-4.120798 6.35998,-4.120798 v -0.757752 c 0,-1.098312 -0.19573,-1.796462 -1.72834,-1.796462 -1.36224,0 -2.70747,0.732207 -3.02249,0.732207 -0.11922,0 -0.21294,-0.153248 -0.2469,-0.246907 l -0.48531,-1.489948 c -0.051,-0.09366 -0.0767,-0.195815 -0.0767,-0.289476 0,-0.561928 2.418,-1.149397 4.29108,-1.149397 3.04803,0 4.18892,1.38779 4.18892,3.924975 v 4.708269 c 0,2.35839 0.63856,2.673409 0.63856,3.167223 0,0.09366 -0.10223,0.170291 -0.22139,0.212859 z m -1.48997,-5.772522 c -0.60449,0 -3.43967,-0.195815 -3.43967,1.949716 0,0.945057 0.68965,1.651724 1.60915,1.651724 0.90249,0 1.54104,-0.630039 1.83052,-0.928031 z m 0,0" id="path712"/>
  <path style="fill:#002e5c;fill-opacity:1;fill-rule:nonzero;stroke:none;stroke-width:2.1796" d="m 104.85048,27.968641 c 0.0255,0.07663 0.068,0.170292 0.068,0.246906 0,0.578956 -1.97526,1.294135 -3.43116,1.294135 -3.3886,0 -5.41494,-2.077427 -5.41494,-6.189712 0,-4.120798 2.07743,-6.683525 5.68739,-6.683525 1.31116,0 3.45669,0.732209 3.45669,1.489958 0,0.07663 -0.051,0.144747 -0.0765,0.221365 l -0.90248,1.583613 c -0.051,0.04257 -0.0937,0.119202 -0.17023,0.119202 -0.2469,0 -1.04723,-0.979113 -2.3073,-0.979113 -1.66024,0 -2.39245,1.268592 -2.39245,4.078226 0,2.673412 0.63003,3.916461 2.51163,3.916461 1.24307,0 1.72836,-0.825862 2.16258,-0.825862 0.0767,0 0.12772,0.05109 0.17022,0.119202 z m 0,0" id="path714"/>
  <path style="fill:#002e5c;fill-opacity:1;fill-rule:nonzero;stroke:none;stroke-width:2.1796" d="m 116.83826,28.751933 c 0,0.263936 -0.051,0.340562 -0.34057,0.340562 h -2.418 c -0.28947,0 -0.34056,-0.07663 -0.34056,-0.340562 v -7.50939 c 0,-0.92803 -0.11922,-2.043371 -1.36224,-2.043371 -1.02169,0 -1.7539,0.732209 -2.06892,1.021686 v 8.531075 c 0,0.263936 -0.051,0.340562 -0.34906,0.340562 h -2.40948 c -0.28949,0 -0.34056,-0.07663 -0.34056,-0.340562 V 12.370908 c 0,-0.366104 0.17022,-0.366104 0.45974,-0.434217 l 2.05189,-0.408674 c 0.068,0 0.28948,-0.07663 0.34057,-0.07663 0.19572,0 0.2469,0.09366 0.2469,0.510842 v 6.070515 c 0.65558,-0.536386 1.6347,-1.396304 3.35453,-1.396304 2.58827,0 3.17576,1.728352 3.17576,3.856862 z m 0,0" id="path716"/>
  <path style="fill:#002e5c;fill-opacity:1;fill-rule:nonzero;stroke:none;stroke-width:2.1796" d="m 129.91583,28.751933 c 0,0.263936 -0.0425,0.340562 -0.34056,0.340562 h -2.40948 c -0.28949,0 -0.34908,-0.07663 -0.34908,-0.340562 v -7.50939 c 0,-0.92803 -0.11923,-2.043371 -1.35373,-2.043371 -1.03021,0 -1.76242,0.732209 -2.07744,1.021686 v 8.531075 c 0,0.263936 -0.0425,0.340562 -0.34056,0.340562 h -2.40948 c -0.29799,0 -0.34906,-0.07663 -0.34906,-0.340562 V 12.370908 c 0,-0.366104 0.17023,-0.366104 0.46827,-0.434217 l 2.05189,-0.408674 c 0.068,0 0.28947,-0.07663 0.34056,-0.07663 0.19573,0 0.23838,0.09366 0.23838,0.510842 v 6.070515 c 0.65558,-0.536386 1.6347,-1.396304 3.36306,-1.396304 2.58827,0 3.16723,1.728352 3.16723,3.856862 z m 0,0" id="path718"/>
  <path style="fill:#002e5c;fill-opacity:1;fill-rule:nonzero;stroke:none;stroke-width:2.1796" d="m 137.49333,29.501169 c -3.28642,0 -5.28722,-2.503131 -5.28722,-6.428105 0,-3.924975 2.0008,-6.436619 5.28722,-6.436619 3.26087,0 5.28722,2.511644 5.28722,6.436619 0,3.924974 -2.00081,6.428105 -5.28722,6.428105 m 2.0008,-6.428105 c 0,-2.264738 -0.32354,-3.993087 -2.0008,-3.993087 -1.68579,0 -2.00081,1.728349 -2.00081,3.993087 0,2.264737 0.28948,3.993087 2.00081,3.993087 1.70281,0 2.0008,-1.702809 2.0008,-3.993087" id="path720"/>
  <path style="fill:#002e5c;fill-opacity:1;fill-rule:nonzero;stroke:none;stroke-width:2.1796" d="m 153.59339,27.968641 c 0.0255,0.07663 0.0765,0.170292 0.0765,0.246906 0,0.578956 -1.97525,1.294135 -3.43966,1.294135 -3.3886,0 -5.40642,-2.077427 -5.40642,-6.189712 0,-4.120798 2.06891,-6.683525 5.67035,-6.683525 1.31968,0 3.46523,0.732209 3.46523,1.489958 0,0.07663 -0.051,0.144747 -0.0767,0.221365 l -0.90249,1.583613 c -0.0425,0.04257 -0.0937,0.119202 -0.16172,0.119202 -0.24691,0 -1.05576,-0.979113 -2.32435,-0.979113 -1.65172,0 -2.38393,1.268592 -2.38393,4.078226 0,2.673412 0.63856,3.916461 2.51166,3.916461 1.24304,0 1.72833,-0.825862 2.16255,-0.825862 0.0767,0 0.12772,0.05109 0.17873,0.119202 z m 0,0" id="path722"/>
  <path style="fill:#002e5c;fill-opacity:1;fill-rule:nonzero;stroke:none;stroke-width:2.1796" d="m 165.58117,28.751933 c 0,0.263936 -0.051,0.340562 -0.34056,0.340562 h -2.418 c -0.28948,0 -0.34057,-0.07663 -0.34057,-0.340562 v -7.50939 c 0,-0.92803 -0.11922,-2.043371 -1.36224,-2.043371 -1.02169,0 -1.7539,0.732209 -2.06892,1.021686 v 8.531075 c 0,0.263936 -0.051,0.340562 -0.34056,0.340562 h -2.40948 c -0.29797,0 -0.34906,-0.07663 -0.34906,-0.340562 V 12.370908 c 0,-0.366104 0.17023,-0.366104 0.45976,-0.434217 l 2.05187,-0.408674 c 0.068,0 0.298,-0.07663 0.34057,-0.07663 0.19594,0 0.2469,0.09366 0.2469,0.510842 v 6.070515 c 0.65558,-0.536386 1.6347,-1.396304 3.36305,-1.396304 2.57977,0 3.16724,1.728352 3.16724,3.856862 z m 0,0" id="path724"/>
  <path style="fill:#002e5c;fill-opacity:1;fill-rule:nonzero;stroke:none;stroke-width:2.1796" d="m 175.46596,19.488651 c -0.0425,0.119202 -0.17023,0.221364 -0.19573,0.221364 -0.068,0 -1.26859,-0.638552 -2.81815,-0.638552 -0.92803,0 -1.61767,0.349075 -1.61767,1.174937 0,1.319678 2.19664,1.21751 3.92497,2.358391 0.95357,0.638554 1.6347,1.566584 1.6347,2.979917 0,2.239192 -1.58361,3.916461 -4.17188,3.916461 -1.79647,0 -4.58055,-0.919517 -4.58055,-1.575098 0,-0.07663 0.10222,-0.22988 0.12772,-0.323535 l 0.5364,-1.38779 c 0.0425,-0.119202 0.0937,-0.221364 0.19573,-0.221364 0.0937,0 1.96674,1.072769 3.48225,1.072769 0.80883,0 1.48143,-0.340562 1.48143,-1.217509 0,-1.413331 -2.38393,-1.413331 -3.99309,-2.4861 -0.73219,-0.485302 -1.43886,-1.336707 -1.43886,-2.750037 0,-2.222166 1.68577,-3.97606 4.31663,-3.97606 1.48143,0 3.80577,0.638554 3.80577,1.191966 0,0.07663 -0.0767,0.221367 -0.12773,0.323533 z m 0,0" id="path726"/>
  <path style="fill:#002e5c;fill-opacity:1;fill-rule:nonzero;stroke:none;stroke-width:2.1796" d="m 186.98547,27.968641 c 0.0255,0.07663 0.0767,0.170292 0.0767,0.246906 0,0.578956 -1.96676,1.294135 -3.43969,1.294135 -3.38007,0 -5.40642,-2.077427 -5.40642,-6.189712 0,-4.120798 2.07744,-6.683525 5.67887,-6.683525 1.31968,0 3.45671,0.732209 3.45671,1.489958 0,0.07663 -0.0425,0.144747 -0.068,0.221365 l -0.90248,1.583613 c -0.051,0.04257 -0.0937,0.119202 -0.17023,0.119202 -0.2469,0 -1.04723,-0.979113 -2.31582,-0.979113 -1.66024,0 -2.38393,1.268592 -2.38393,4.078226 0,2.673412 0.63003,3.916461 2.51164,3.916461 1.23454,0 1.71985,-0.825862 2.16257,-0.825862 0.0767,0 0.11922,0.05109 0.17023,0.119202 z m 0,0" id="path728"/>
  <path style="fill:#002e5c;fill-opacity:1;fill-rule:nonzero;stroke:none;stroke-width:2.1796" d="m 198.97325,28.751933 c 0,0.263936 -0.0425,0.340562 -0.34056,0.340562 h -2.40948 c -0.29799,0 -0.34056,-0.07663 -0.34056,-0.340562 v -7.50939 c 0,-0.92803 -0.12773,-2.043371 -1.37077,-2.043371 -1.01316,0 -1.74538,0.732209 -2.06889,1.021686 v 8.531075 c 0,0.263936 -0.0425,0.340562 -0.34057,0.340562 h -2.40947 c -0.298,0 -0.34057,-0.07663 -0.34057,-0.340562 V 12.370908 c 0,-0.366104 0.17023,-0.366104 0.45975,-0.434217 l 2.05189,-0.408674 c 0.068,0 0.28947,-0.07663 0.34056,-0.07663 0.19573,0 0.23841,0.09366 0.23841,0.510842 v 6.070515 c 0.66407,-0.536386 1.63469,-1.396304 3.36302,-1.396304 2.58827,0 3.16724,1.728352 3.16724,3.856862 z m 0,0" id="path730"/>
  <path style="fill:#002e5c;fill-opacity:1;fill-rule:nonzero;stroke:none;stroke-width:2.1796" d="m 209.9138,29.433057 c -0.14473,0.05109 -0.26393,0.07663 -0.36611,0.07663 -0.31502,0 -0.51083,-0.468273 -0.78328,-1.438873 -0.65558,0.578955 -1.80499,1.438873 -3.72064,1.438873 -1.34522,0 -3.17575,-0.613011 -3.17575,-3.55887 V 17.56448 c 0,-0.340562 0.17022,-0.366104 0.46828,-0.44273 l 2.04337,-0.408675 c 0.0765,0 0.31502,-0.07663 0.39165,-0.07663 0.14473,0 0.19573,0.102158 0.19573,0.510843 v 7.756296 c 0,0.919517 0.11923,2.043371 1.36225,2.043371 1.03021,0 1.83051,-0.536385 2.14553,-0.757752 v -8.624728 c 0,-0.340561 0.17022,-0.366104 0.45976,-0.44273 l 2.0519,-0.408674 c 0.068,0 0.31501,-0.07663 0.40867,-0.07663 0.12772,0 0.17873,0.102158 0.17873,0.510843 v 7.603042 c 0,3.439675 0.45976,3.243854 0.45976,3.80578 0,0.119202 -0.0937,0.221364 -0.27245,0.263936 z m 0,0" id="path732"/>
  <path style="fill:#002e5c;fill-opacity:1;fill-rule:nonzero;stroke:none;stroke-width:2.1796" d="m 220.30944,28.624222 c 0.034,0.127702 0.051,0.127702 0.051,0.195815 0,0.340561 -1.28562,0.689637 -2.46057,0.689637 -2.99694,0 -2.99694,-2.469072 -2.99694,-4.708267 V 12.3709 c 0,-0.366105 0.17022,-0.366105 0.46828,-0.434217 l 2.04337,-0.408674 c 0.068,0 0.28947,-0.07664 0.34056,-0.07664 0.19573,0 0.23839,0.09366 0.23839,0.510843 v 13.281912 c 0,0.774778 0,1.455902 0.68964,1.455902 0.48529,0 0.80033,-0.221366 0.94505,-0.221366 0.10223,0 0.17023,0.05109 0.19595,0.153247 z m 0,0" id="path734"/>
  <path style="fill:#002e5c;fill-opacity:1;fill-rule:nonzero;stroke:none;stroke-width:2.1796" d="m 231.27554,27.79836 c 0.051,0.07663 0.0767,0.170292 0.0767,0.272449 0,0.630039 -2.44355,1.438873 -4.35919,1.438873 -3.21831,0 -5.45752,-1.83052 -5.45752,-6.317423 0,-3.873889 2.06892,-6.555814 5.32979,-6.555814 4.14636,0 4.87005,3.70361 4.87005,6.649469 0,0.468273 -0.0937,0.613012 -0.55342,0.613012 h -6.55581 c 0,1.362247 0.38313,3.048029 2.68192,3.048029 1.7539,0 2.75004,-0.808835 3.0906,-0.808835 0.11923,0 0.22136,0.102158 0.26393,0.195815 z m -2.82666,-6.16417 c 0,-0.996142 -0.0767,-2.73301 -1.7539,-2.73301 -1.89862,0 -1.99228,2.051887 -2.06891,2.73301 z m 0,0" id="path736"/>
  <path style="fill:#002e5c;fill-opacity:1;fill-rule:nonzero;stroke:none;stroke-width:2.1796" d="m 241.40726,28.581652 c 0,0.434217 -0.0937,0.510843 -0.51086,0.510843 h -2.26473 c -0.41717,0 -0.51083,-0.07663 -0.51083,-0.510843 v -15.67436 c 0,-0.434215 0.0937,-0.502327 0.51083,-0.502327 h 2.26473 c 0.4172,0 0.51086,0.06811 0.51086,0.502327 v 6.828266 h 0.051 l 5.36383,-7.432762 c 0.068,-0.127703 0.26395,-0.315019 0.40868,-0.315019 0.12772,0 0.24692,0.09366 0.44274,0.187314 l 1.65172,0.834378 c 0.15322,0.06811 0.32354,0.221364 0.32354,0.289476 0,0.246907 -0.10223,0.297993 -0.17023,0.391648 l -5.19356,6.84529 5.72996,7.117745 c 0.068,0.102158 0.17022,0.144747 0.17022,0.391645 0,0.06811 -0.17022,0.212859 -0.32351,0.289479 l -1.94974,0.979113 c -0.18723,0.09366 -0.31502,0.195815 -0.4342,0.195815 -0.14472,0 -0.34056,-0.195815 -0.41719,-0.323535 l -5.60224,-7.458302 h -0.051 z m 0,0" id="path738"/>
  <path style="fill:#002e5c;fill-opacity:1;fill-rule:nonzero;stroke:none;stroke-width:2.1796" d="m 255.7364,28.751933 c 0,0.263936 -0.051,0.340562 -0.34056,0.340562 h -2.418 c -0.28948,0 -0.34057,-0.07663 -0.34057,-0.340562 V 19.31837 h -1.87307 c -0.298,0 -0.34057,-0.07664 -0.34057,-0.340562 v -1.583614 c 0,-0.263936 0.0425,-0.340561 0.34057,-0.340561 h 4.63164 c 0.28947,0 0.34056,0.07663 0.34056,0.340561 z m -1.56659,-13.281912 c -1.11534,0 -2.01782,-0.90249 -2.01782,-2.026344 0,-1.115338 0.90248,-1.992286 2.01782,-1.992286 1.0983,0 2.00081,0.876948 2.00081,1.992286 0,1.123854 -0.90251,2.026344 -2.00081,2.026344" id="path740"/>
  <path style="fill:#002e5c;fill-opacity:1;fill-rule:nonzero;stroke:none;stroke-width:2.1796" d="m 268.01365,27.79836 c 0.0425,0.07663 0.068,0.170292 0.068,0.272449 0,0.630039 -2.43502,1.438873 -4.35919,1.438873 -3.2183,0 -5.45751,-1.83052 -5.45751,-6.317423 0,-3.873889 2.06891,-6.555814 5.33831,-6.555814 4.13783,0 4.87004,3.70361 4.87004,6.649469 0,0.468273 -0.0937,0.613012 -0.56192,0.613012 h -6.55583 c 0,1.362247 0.39165,3.048029 2.68193,3.048029 1.75389,0 2.75856,-0.808835 3.09912,-0.808835 0.11922,0 0.21273,0.102158 0.26393,0.195815 z m -2.82666,-6.16417 c 0,-0.996142 -0.0767,-2.73301 -1.75389,-2.73301 -1.90715,0 -2.00081,2.051887 -2.07744,2.73301 z m 0,0" id="path742"/>
  <path style="fill:#002e5c;fill-opacity:1;fill-rule:nonzero;stroke:none;stroke-width:2.1796" d="m 276.44256,28.624222 c 0.0255,0.127702 0.0425,0.127702 0.0425,0.195815 0,0.340561 -1.28561,0.689637 -2.46057,0.689637 -2.99694,0 -2.99694,-2.469072 -2.99694,-4.708267 V 12.3709 c 0,-0.366105 0.17873,-0.366105 0.46828,-0.434217 l 2.04338,-0.408674 c 0.0765,0 0.28947,-0.07664 0.34056,-0.07664 0.19573,0 0.2469,0.09366 0.2469,0.510843 v 13.281912 c 0,0.774778 0,1.455902 0.68113,1.455902 0.48528,0 0.80032,-0.221366 0.95357,-0.221366 0.0937,0 0.17023,0.05109 0.18723,0.153247 z m 0,0" id="path744"/>
  <path style="clip-rule:nonzero;fill:#002e5c;fill-opacity:1;fill-rule:nonzero;stroke:none;stroke-width:2.1796" d="m 80.372601,40.271438 c 0.01744,-0.02555 0.01744,-0.05109 0.01744,-0.08514 0,-0.09366 -0.0425,-0.119202 -0.136225,-0.119202 h -0.740714 c -0.110723,0 -0.178726,0.04257 -0.204228,0.161769 l -0.834393,3.882405 h -3.124649 l 0.817348,-3.83983 c 0.01744,-0.02555 0.01744,-0.06811 0.01744,-0.09366 0,-0.08514 -0.0425,-0.11068 -0.136225,-0.11068 h -0.740714 c -0.110723,0 -0.178727,0.04257 -0.204228,0.161769 l -1.907146,8.990833 c -0.01744,0.02555 -0.01744,0.05109 -0.01744,0.07664 0,0.102157 0.0425,0.127702 0.136225,0.127702 h 0.740714 c 0.102223,0 0.178727,-0.04257 0.204228,-0.16177 l 0.902483,-4.239993 h 3.124669 l -0.885461,4.197424 c 0,0.02554 -0.01744,0.06811 -0.01744,0.09366 0,0.08513 0.0425,0.11068 0.136225,0.11068 h 0.740736 c 0.110723,0 0.178726,-0.04257 0.204228,-0.16177 z m 3.788748,2.40096 c -2.358388,0 -3.499276,2.417991 -3.499276,4.657183 0,1.626184 0.791804,2.281765 2.060394,2.281765 2.324343,0 3.524821,-2.460559 3.524821,-4.631641 0,-1.549556 -0.791804,-2.307307 -2.085939,-2.307307 m 1.04723,2.324336 c 0,1.489956 -0.698168,3.729151 -2.324342,3.729151 -0.842894,0 -1.183455,-0.519356 -1.183455,-1.421846 0,-1.583612 0.655578,-3.746181 2.30732,-3.746181 0.698146,0 1.200477,0.41719 1.200477,1.438876 m 5.942799,3.158711 c -0.0255,-0.04257 -0.068,-0.05959 -0.110723,-0.05959 -0.178727,0 -0.655579,0.561926 -1.558084,0.561926 -0.859916,0 -1.226023,-0.52787 -1.226023,-1.336704 0,-1.558071 0.723713,-3.729152 2.375432,-3.729152 0.391652,0 0.630034,0.07663 0.911006,0.187315 0.136225,0.05109 0.289472,0.178792 0.408674,0.178792 0.0595,0 0.102223,-0.05109 0.144726,-0.127702 l 0.238404,-0.391645 c 0.0425,-0.05109 0.08522,-0.136225 0.08522,-0.21286 0,-0.195815 -0.808826,-0.553414 -1.677264,-0.553414 -2.298798,0 -3.524821,2.392448 -3.524821,4.657183 0,1.421847 0.604511,2.281765 1.924169,2.281765 1.15791,0 2.25623,-0.681124 2.25623,-0.868432 0,-0.04257 -0.0425,-0.08514 -0.0425,-0.11068 z m 1.353725,1.089798 c -0.01744,0.02555 -0.01744,0.06811 -0.01744,0.09366 0,0.05959 0.0425,0.08514 0.110723,0.08514 h 0.715191 c 0.102223,0 0.136225,-0.04257 0.161726,-0.136225 l 0.630034,-2.979917 c 0.187227,-0.902488 0.99614,-2.715979 2.469068,-2.715979 0.408674,0 0.613011,0.204337 0.613011,0.587468 0,0.178792 -0.0425,0.366105 -0.07672,0.544899 l -0.962073,4.520959 c -0.0087,0.02555 -0.0087,0.06811 -0.0087,0.09366 0,0.05959 0.0425,0.08514 0.102223,0.08514 h 0.715169 c 0.110724,0 0.136225,-0.04257 0.161726,-0.136224 L 98.08962,44.72428 c 0.051,-0.315019 0.136225,-0.630041 0.136225,-0.953573 0,-0.723694 -0.536377,-1.098314 -1.243045,-1.098314 -1.217501,0 -1.966737,0.740723 -2.469068,1.447389 l -0.034,-0.02555 c 0.178727,-0.425701 0.255427,-0.732207 0.323539,-1.021685 l 0.715191,-3.431159 c 0.01744,-0.06811 0,-0.11068 -0.09372,-0.11068 -0.051,0 -0.09372,0.03407 -0.119224,0.03407 l -0.681123,0.16177 c -0.09372,0.02554 -0.127725,0.136224 -0.144725,0.212859 z m 10.966087,-5.917262 c 0.009,-0.02555 0.0255,-0.06811 0.0255,-0.102158 0,-0.238393 -0.74924,-0.553415 -1.55807,-0.553415 -1.21752,0 -2.264727,0.723696 -2.264727,2.009318 0,1.677266 2.128507,1.583611 2.128507,2.911802 0,0.681124 -0.56192,1.106827 -1.18346,1.106827 -1.030204,0 -1.558058,-0.493815 -1.719828,-0.493815 -0.068,0 -0.110723,0.04257 -0.153226,0.136224 l -0.221359,0.468273 c -0.0087,0.04257 -0.051,0.09366 -0.051,0.16177 0,0.187314 0.902505,0.638552 1.966753,0.638552 1.3963,0 2.40096,-0.834376 2.40096,-2.213652 0,-0.570442 -0.22136,-0.936544 -0.59599,-1.28562 -0.58747,-0.544899 -1.53252,-0.817348 -1.53252,-1.549557 0,-0.587469 0.45124,-0.9706 1.14939,-0.9706 0.74924,0 1.07278,0.29799 1.209,0.29799 0.10222,0 0.13622,-0.05959 0.17873,-0.119202 z m 4.63165,4.827464 c -0.0255,-0.04257 -0.068,-0.05959 -0.11073,-0.05959 -0.17872,0 -0.65558,0.561926 -1.55806,0.561926 -0.85992,0 -1.22602,-0.52787 -1.22602,-1.336704 0,-1.558071 0.72369,-3.729152 2.37541,-3.729152 0.39165,0 0.63003,0.07663 0.911,0.187315 0.13623,0.05109 0.28948,0.178792 0.40868,0.178792 0.0595,0 0.10222,-0.05109 0.13622,-0.127702 l 0.24691,-0.391645 c 0.0425,-0.05109 0.0852,-0.136225 0.0852,-0.21286 0,-0.195815 -0.80883,-0.553414 -1.68577,-0.553414 -2.29027,0 -3.51629,2.392448 -3.51629,4.657183 0,1.421847 0.59596,2.281765 1.92417,2.281765 1.15791,0 2.2562,-0.681124 2.2562,-0.868432 0,-0.04257 -0.0425,-0.08514 -0.0425,-0.11068 z m 1.35374,1.089798 c -0.0174,0.02555 -0.0174,0.06811 -0.0174,0.09366 0,0.05959 0.0425,0.08514 0.11072,0.08514 h 0.70665 c 0.11072,0 0.13622,-0.04257 0.17022,-0.136225 l 0.62154,-2.979917 c 0.19572,-0.902488 0.99614,-2.715979 2.47756,-2.715979 0.40868,0 0.61302,0.204337 0.61302,0.587468 0,0.178792 -0.0425,0.366105 -0.0852,0.544899 l -0.95357,4.520959 c -0.009,0.02555 -0.009,0.06811 -0.009,0.09366 0,0.05959 0.034,0.08514 0.10223,0.08514 h 0.71519 c 0.11072,0 0.13622,-0.04257 0.16172,-0.136224 l 0.97062,-4.563529 c 0.051,-0.315019 0.13622,-0.630041 0.13622,-0.953573 0,-0.723694 -0.53639,-1.098314 -1.24306,-1.098314 -1.2175,0 -1.96674,0.740723 -2.46907,1.447389 l -0.034,-0.02555 c 0.17872,-0.425701 0.2469,-0.732207 0.31501,-1.021685 l 0.7237,-3.431159 c 0.0174,-0.06811 0,-0.11068 -0.0937,-0.11068 -0.0595,0 -0.0937,0.03407 -0.11922,0.03407 l -0.68962,0.16177 c -0.0937,0.02554 -0.11923,0.136224 -0.13623,0.212859 z m 12.53268,-6.462161 c 0,-0.06811 0.0174,-0.11068 -0.0937,-0.11068 -0.0597,0 -0.0937,0.03407 -0.11923,0.03407 l -0.68964,0.16177 c -0.0937,0.02554 -0.11923,0.136224 -0.13623,0.221366 l -0.62151,2.894776 c -0.13623,0.621524 -0.2469,1.251563 -0.74074,1.898632 -0.22986,0.29799 -0.92802,0.817349 -1.60063,0.817349 -0.45976,0 -0.69814,-0.289479 -0.69814,-0.766265 0,-0.246907 0.0937,-0.587469 0.15322,-0.834378 l 0.88557,-4.316637 c 0.0174,-0.06811 0.0174,-0.11068 -0.0937,-0.11068 -0.051,0 -0.0937,0.03407 -0.12772,0.03407 l -0.68113,0.16177 c -0.0937,0.02554 -0.11922,0.136224 -0.13622,0.221366 l -0.91101,4.299593 c -0.068,0.272449 -0.11922,0.544899 -0.11922,0.791805 0,0.970603 0.68112,1.43036 1.31968,1.43036 1.19195,0 1.89862,-0.655581 2.39245,-1.277106 l 0.0255,0.02555 c -0.009,0.119202 -0.051,0.323533 -0.051,0.519356 0,0.297993 0.16173,0.638554 0.28095,0.638554 0.0597,0 0.11073,-0.04257 0.19595,-0.06811 l 0.48528,-0.204337 c 0.0597,-0.017 0.12773,-0.05959 0.12773,-0.11068 -0.0852,-0.289476 -0.17873,-0.544899 -0.17873,-0.834375 0,-0.21286 0.051,-0.451246 0.0937,-0.664097 z m 3.26939,5.84915 c -0.0174,-0.06811 -0.0425,-0.09366 -0.10222,-0.09366 -0.10222,0 -0.34056,0.22988 -0.69815,0.22988 -0.2384,0 -0.39165,-0.11068 -0.39165,-0.451247 0,-0.315019 0.11072,-1.021685 0.18723,-1.379274 l 1.54956,-7.296537 c 0,-0.06811 0,-0.11068 -0.10222,-0.11068 -0.051,0 -0.0937,0.03407 -0.11923,0.03407 l -0.68112,0.16177 c -0.0937,0.02555 -0.12772,0.136225 -0.13622,0.212859 l -1.48995,6.998547 c -0.0595,0.27245 -0.24691,1.106825 -0.24691,1.643211 0,0.681123 0.45124,1.030199 1.10682,1.030199 0.5449,0 1.21752,-0.246907 1.21752,-0.451244 0,-0.03407 -0.0255,-0.102158 -0.0255,-0.144747 z m 5.32127,-0.544899 c -0.0255,-0.04257 -0.068,-0.08514 -0.11923,-0.08514 -0.19594,0 -0.74073,0.655581 -1.94973,0.655581 -0.89396,0 -1.27709,-0.52787 -1.27709,-1.506986 0,-0.102157 0.0174,-0.212859 0.0174,-0.340561 1.20048,-0.0085 4.20595,-0.0085 4.20595,-2.383933 0,-1.013172 -0.58747,-1.753895 -1.80499,-1.753895 -2.03485,0 -3.45671,2.119999 -3.45671,4.444333 0,1.515502 0.67262,2.494615 2.21366,2.494615 1.32818,0 2.52868,-0.800319 2.52868,-0.9706 0,-0.02555 -0.0174,-0.03407 -0.0255,-0.05959 z m -3.21831,-2.119999 c 0.14473,-0.672608 0.57897,-2.44353 2.14555,-2.44353 0.66408,0 0.99614,0.366103 0.99614,0.936544 0,1.506986 -2.39245,1.506986 -3.14169,1.506986 m 11.90265,-2.307305 c 0.10222,0 0.12772,-0.04257 0.17872,-0.16177 l 0.12773,-0.332048 c 0.068,-0.187314 0.068,-0.187314 0.068,-0.212859 0,-0.05959 -0.0425,-0.08514 -0.11072,-0.08514 h -1.92417 l 0.2469,-1.191967 c 0.11073,-0.502329 0.17023,-1.353731 1.13237,-1.353731 0.60451,0 1.0898,0.332046 1.209,0.332046 0.0425,0 0.0852,-0.04257 0.10222,-0.06811 l 0.24693,-0.587468 c 0,-0.017 0.009,-0.02555 0.009,-0.04257 0,-0.161769 -0.77479,-0.425703 -1.45591,-0.425703 -1.80497,0 -2.03485,1.260079 -2.20514,2.026344 l -0.27245,1.311162 h -0.95357 c -0.11923,0 -0.15323,0.04257 -0.17873,0.16177 l -0.068,0.332048 c -0.0425,0.187314 -0.0425,0.187314 -0.0425,0.212859 0,0.05959 0.0425,0.08513 0.11072,0.08513 h 0.95357 l -1.16641,6.087542 c -0.10222,0.510842 -0.31502,1.583613 -1.43888,1.583613 -0.39165,0 -0.7918,-0.119202 -0.84289,-0.119202 -0.0425,0 -0.0852,0.04257 -0.0937,0.08514 l -0.19572,0.553413 c -0.009,0.02554 -0.009,0.06811 -0.009,0.102157 0,0.16177 0.57896,0.255421 1.0302,0.255421 2.0519,0 2.39246,-1.600639 2.54571,-2.40096 l 1.15791,-6.147141 z m 5.8917,-0.876947 c 0,-0.06811 0.009,-0.11068 -0.0937,-0.11068 -0.0595,0 -0.10222,0.03407 -0.12772,0.03407 l -0.68113,0.16177 c -0.0937,0.02554 -0.11922,0.136224 -0.13622,0.221366 l -0.63003,2.894776 c -0.13623,0.621524 -0.24691,1.251563 -0.73222,1.898632 -0.23838,0.29799 -0.93655,0.817349 -1.60063,0.817349 -0.46828,0 -0.69817,-0.289479 -0.69817,-0.766265 0,-0.246907 0.0937,-0.587469 0.15323,-0.834378 l 0.88546,-4.31662 c 0.0174,-0.06811 0.0174,-0.11068 -0.0937,-0.11068 -0.0597,0 -0.0937,0.03407 -0.12773,0.03407 l -0.68112,0.16177 c -0.0937,0.02555 -0.12772,0.136225 -0.13623,0.221366 l -0.911,4.299593 c -0.068,0.27245 -0.12773,0.544899 -0.12773,0.791806 0,0.970602 0.68113,1.43036 1.32821,1.43036 1.19195,0 1.89862,-0.655581 2.39243,-1.277106 l 0.0255,0.02555 c -0.0174,0.119202 -0.0595,0.323532 -0.0595,0.519356 0,0.297992 0.17022,0.638554 0.28947,0.638554 0.051,0 0.11072,-0.04257 0.19573,-0.06811 l 0.48531,-0.204337 c 0.0595,-0.017 0.11922,-0.05959 0.11922,-0.11068 -0.0767,-0.289476 -0.17023,-0.544898 -0.17023,-0.834375 0,-0.212859 0.051,-0.451246 0.0937,-0.664097 z m -2.61381,-1.898633 c 0,-0.383132 -0.3065,-0.698151 -0.68962,-0.698151 -0.38313,0 -0.69815,0.315019 -0.69815,0.698151 0,0.383131 0.31502,0.698151 0.69815,0.698151 0.38312,0 0.68962,-0.29799 0.68962,-0.698151 m 2.50313,0 c 0,-0.383132 -0.31501,-0.698151 -0.69814,-0.698151 -0.37463,0 -0.68965,0.315019 -0.68965,0.698151 0,0.383131 0.31502,0.698151 0.68965,0.698151 0.38313,0 0.69814,-0.29799 0.69814,-0.698151 m 0.99615,8.241597 c -0.0425,0.187314 -0.0425,0.187314 -0.0425,0.212859 0,0.05959 0.0425,0.08514 0.11923,0.08514 h 0.70667 c 0.11072,0 0.13622,-0.04257 0.16172,-0.136225 l 0.63004,-2.979917 c 0.11922,-0.587469 0.25542,-1.149395 0.65557,-1.736865 0.20423,-0.29799 0.79181,-0.936544 1.29414,-0.936544 0.31502,0 0.34056,0.07663 0.43422,0.07663 0.0425,0 0.068,-0.02555 0.0937,-0.09366 l 0.28095,-0.630038 c 0.0255,-0.05109 0.034,-0.09366 0.034,-0.136225 0,-0.09366 -0.29799,-0.178792 -0.51935,-0.178792 -0.75776,0 -1.56659,0.689639 -1.89013,1.379276 l -0.034,-0.02555 c 0.0425,-0.11068 0.0425,-0.229877 0.0425,-0.366102 0,-0.544899 -0.11923,-0.987632 -0.24691,-0.987632 -0.051,0 -0.13622,0.04257 -0.17023,0.05959 l -0.54489,0.229879 c -0.0595,0.02555 -0.14473,0.08514 -0.14473,0.16177 0,0.11068 0.14473,0.408674 0.14473,0.953573 0,0.417188 -0.0767,0.630038 -0.15323,1.038713 z m 11.24706,-3.431162 h -2.39246 l 1.54104,-3.031 c 0.16173,-0.315019 0.43422,-0.996143 0.5449,-1.302648 h 0.034 c 0,0.340561 0,0.808834 0.034,1.302648 z m -5.1425,3.431162 c -0.0255,0.05109 -0.051,0.09366 -0.051,0.161769 0,0.11068 0.0425,0.136225 0.11922,0.136225 h 0.7152 c 0.0767,0 0.0937,-0.02555 0.16172,-0.136225 l 1.35373,-2.681925 h 2.92033 l 0.22136,2.656382 c 0,0.119203 0.0425,0.16177 0.15322,0.16177 h 0.82587 c 0.0852,0 0.12773,-0.017 0.12773,-0.06811 0,-0.03407 0,-0.06811 -0.0174,-0.136225 l -0.84254,-8.97381 c -0.034,-0.170292 -0.0425,-0.178792 -0.19573,-0.178792 h -0.68112 c -0.11923,0 -0.16173,0.02554 -0.22139,0.119202 z m 7.96915,0.119202 c -0.0174,0.02555 -0.0174,0.06811 -0.0174,0.09366 0,0.05959 0.0425,0.08514 0.11073,0.08514 h 0.70667 c 0.11072,0 0.13622,-0.04257 0.17022,-0.136225 l 0.62151,-2.979917 c 0.19595,-0.902488 0.99614,-2.715979 2.47759,-2.715979 0.40868,0 0.61302,0.204337 0.61302,0.587469 0,0.178792 -0.0425,0.366104 -0.0852,0.544898 l -0.95357,4.520959 c -0.0174,0.02555 -0.0174,0.06811 -0.0174,0.09366 0,0.05959 0.0425,0.08514 0.11073,0.08514 h 0.71517 c 0.11072,0 0.13622,-0.04257 0.16172,-0.136225 l 0.9706,-4.563529 c 0.068,-0.315019 0.13622,-0.63004 0.13622,-0.953573 0,-0.723693 -0.53637,-1.098313 -1.24304,-1.098313 -1.2175,0 -1.96674,0.740722 -2.47759,1.447388 h -0.0255 c 0,-0.119202 0.0425,-0.340561 0.0425,-0.613011 0,-0.417188 -0.15323,-0.834377 -0.26395,-0.834377 -0.051,0 -0.10222,0.04257 -0.18723,0.06811 l -0.48529,0.212859 c -0.0597,0.0085 -0.12772,0.05109 -0.12772,0.102158 0.051,0.272449 0.11072,0.544899 0.11072,0.817348 0,0.195815 -0.0425,0.493814 -0.0937,0.783293 z m 11.80048,-4.333651 c 0.0595,-0.349076 0.0937,-0.749236 0.52786,-1.362248 0.0937,-0.144747 0.24693,-0.246907 0.24693,-0.340562 0,-0.04257 -0.0255,-0.06811 -0.051,-0.09366 l -0.39165,-0.357591 c -0.034,-0.02555 -0.051,-0.04257 -0.11922,-0.04257 -0.18723,0 -0.45974,0.374618 -0.58747,0.604497 -0.28947,-0.221366 -0.85991,-0.647069 -1.59213,-0.647069 -2.34136,0 -3.17573,3.022487 -3.17573,4.742325 0,1.191966 0.53639,2.009315 1.54956,2.009315 1.03021,0 1.66024,-0.90249 1.99228,-1.421846 l 0.0255,0.02554 c -0.31504,1.234531 -0.2299,3.346015 -1.94121,3.346015 -0.99617,0 -1.7454,-0.587469 -1.97526,-0.587469 -0.0425,0 -0.0937,0.04257 -0.11073,0.08514 l -0.22986,0.587469 c -0.0174,0.05109 -0.0597,0.136224 -0.0597,0.178792 0,0.119202 1.24305,0.655581 2.25623,0.655581 1.13237,0 2.31582,-0.536385 2.56273,-1.890117 0.17023,-0.94506 0.45124,-2.37542 0.65558,-3.516303 z m -1.21752,1.123854 c -0.22988,1.021685 -1.00464,2.477588 -2.18809,2.477588 -0.49383,0 -0.69817,-0.4853 -0.69817,-1.149397 0,-0.987629 0.5364,-2.911803 1.10684,-3.448188 0.19573,-0.178793 0.34056,-0.323533 0.88546,-0.323533 0.72369,0 1.17493,0.391645 1.30264,0.502327 z m 6.47068,2.051886 c -0.0255,-0.04257 -0.068,-0.08514 -0.11923,-0.08514 -0.19594,0 -0.74073,0.655581 -1.95823,0.655581 -0.88546,0 -1.26859,-0.527869 -1.26859,-1.506985 0,-0.102158 0.0174,-0.21286 0.0174,-0.340562 1.20048,-0.0085 4.20595,-0.0085 4.20595,-2.383933 0,-1.013172 -0.58747,-1.753895 -1.80499,-1.753895 -2.03485,0 -3.45671,2.12 -3.45671,4.444334 0,1.515501 0.67263,2.494615 2.21366,2.494615 1.32818,0 2.52868,-0.80032 2.52868,-0.970601 0,-0.02554 -0.0174,-0.03407 -0.0255,-0.05959 z m -3.22683,-2.119999 c 0.15323,-0.672608 0.58749,-2.443529 2.15407,-2.443529 0.66408,0 0.99614,0.366102 0.99614,0.936544 0,1.506985 -2.39245,1.506985 -3.15021,1.506985 m 9.6975,-2.988428 c -0.009,-0.08514 -0.0255,-0.11068 -0.10222,-0.11068 h -0.5449 c -0.11072,0 -0.13622,0.02555 -0.17873,0.11068 l -2.21366,4.50393 c -0.13622,0.289476 -0.23838,0.502327 -0.27245,0.67261 h -0.034 c 0,-0.195815 0.034,-0.655583 0.034,-0.919519 l 0.068,-4.325134 c 0,-0.102179 -0.034,-0.136224 -0.10222,-0.136224 -0.0255,0 -0.051,0 -0.0767,0.0085 l -0.71517,0.153247 c -0.068,0 -0.12772,0.02555 -0.12772,0.127703 v 0.119202 l 0.20422,6.215253 c 0,0.09366 0.034,0.119202 0.11923,0.119202 h 0.51935 c 0.11073,0 0.11923,-0.02555 0.16173,-0.11068 l 2.12,-4.120798 c 0.16173,-0.332047 0.27245,-0.604496 0.32352,-0.808833 h 0.034 c 0,0.289476 0.009,0.519356 0.009,0.808833 l 0.15323,4.112284 c 0,0.07664 0.0425,0.119202 0.11072,0.119202 h 0.52788 c 0.11072,0 0.13622,-0.02554 0.17872,-0.110679 l 3.07356,-6.274852 c 0.009,-0.03407 0.0255,-0.05959 0.0255,-0.102158 0,-0.04257 -0.0255,-0.06811 -0.0852,-0.07663 l -0.6641,-0.170292 c -0.0255,0 -0.0595,-0.0085 -0.0852,-0.0085 -0.051,0 -0.068,0.02555 -0.0937,0.07663 l -1.92416,4.478387 c -0.12773,0.280966 -0.27245,0.647068 -0.34057,0.876948 h -0.0249 z m 7.66266,3.056541 c -0.22989,1.081284 -0.99615,2.664898 -2.15406,2.664898 -0.63005,0 -0.83439,-0.476787 -0.83439,-1.149397 0,-1.191966 0.6556,-3.959031 2.16257,-3.959031 0.65558,0 1.10682,0.459757 1.22603,0.587469 z m 1.61767,-2.937346 c 0.009,-0.06811 0.0255,-0.11068 0.0255,-0.144747 0,-0.04257 -0.051,-0.08514 -0.11072,-0.08514 h -0.60449 c -0.0767,0 -0.10223,0.08514 -0.11923,0.119202 l -0.18722,0.425702 c -0.26393,-0.29799 -0.5449,-0.740723 -1.43886,-0.740723 -2.21367,0 -3.20981,3.158712 -3.20981,4.938149 0,1.183451 0.5364,2.000799 1.54956,2.000799 1.13237,0 1.79647,-0.92803 2.12851,-1.4559 l 0.0255,0.02555 c -0.051,0.09366 -0.051,0.332048 -0.051,0.595984 0,0.425701 0.14472,0.834376 0.25543,0.834376 0.051,0 0.11072,-0.04257 0.19572,-0.06811 l 0.48531,-0.204337 c 0.0595,-0.017 0.12773,-0.05109 0.12773,-0.102158 -0.0595,-0.280963 -0.11073,-0.553412 -0.11073,-0.825861 0,-0.31502 0.0767,-0.859919 0.11923,-1.081285 z m 0.83437,6.147143 c -0.0174,0.02555 -0.0174,0.06811 -0.0174,0.09366 0,0.05959 0.0425,0.08514 0.11073,0.08514 h 0.70667 c 0.11072,0 0.13622,-0.04257 0.17022,-0.136225 l 0.62154,-2.979917 c 0.19572,-0.902488 0.99614,-2.715979 2.47759,-2.715979 0.40867,0 0.61301,0.204337 0.61301,0.587469 0,0.178792 -0.0425,0.366104 -0.0852,0.544898 l -0.95357,4.520959 c -0.0174,0.02555 -0.0174,0.06811 -0.0174,0.09366 0,0.05959 0.0425,0.08514 0.11073,0.08514 h 0.71519 c 0.10222,0 0.13622,-0.04257 0.16173,-0.136225 l 0.97059,-4.563529 c 0.068,-0.315019 0.13623,-0.63004 0.13623,-0.953573 0,-0.723693 -0.5364,-1.098313 -1.24305,-1.098313 -1.21752,0 -1.96676,0.740722 -2.47759,1.447388 h -0.0255 c 0,-0.119202 0.0425,-0.340561 0.0425,-0.613011 0,-0.417188 -0.15322,-0.834377 -0.26393,-0.834377 -0.051,0 -0.10222,0.04257 -0.18722,0.06811 l -0.49381,0.212859 c -0.051,0.0085 -0.11923,0.05109 -0.11923,0.102158 0.051,0.272449 0.11073,0.544899 0.11073,0.817348 0,0.195815 -0.0425,0.493814 -0.0937,0.783293 z m 10.59146,-3.056543 c -0.28095,1.362247 -1.07275,2.511644 -2.21364,2.511644 -0.57044,0 -0.74923,-0.468273 -0.74923,-1.157911 0,-1.455902 0.51935,-3.950517 2.23068,-3.950517 0.59597,0 0.85992,0.204337 1.20048,0.408674 z m 0.65558,-3.065057 c -0.29797,-0.170292 -0.70665,-0.451246 -1.43036,-0.451246 -2.21364,0 -3.2268,2.58827 -3.2268,4.92112 0,1.353734 0.56192,2.017828 1.54954,2.017828 1.0813,0 1.72835,-0.817348 2.12853,-1.387788 h 0.0255 c 0,0.119202 0,0.229878 0.0174,0.459758 0,0.425703 0.14473,0.834377 0.25541,0.834377 0.0597,0 0.11072,-0.04257 0.19594,-0.06811 l 0.48529,-0.204337 c 0.0597,-0.017 0.14473,-0.05959 0.14473,-0.11068 0,-0.09366 -0.14473,-0.434215 -0.14473,-0.817349 0,-0.332048 0.0255,-0.69815 0.0852,-0.987629 l 1.6347,-7.688182 c 0.0174,-0.06811 0,-0.11068 -0.0937,-0.11068 -0.051,0 -0.0937,0.03407 -0.11923,0.03407 l -0.68112,0.16177 c -0.10222,0.02555 -0.12772,0.136225 -0.13622,0.212859 z m 5.08291,5.346821 c -0.0174,-0.06811 -0.0425,-0.102158 -0.0937,-0.102158 -0.19594,0 -0.61301,0.400161 -1.26859,0.400161 -0.45126,0 -0.64707,-0.136225 -0.64707,-0.638554 0,-0.170292 0.0255,-0.485302 0.068,-0.689639 l 0.80882,-3.780235 h 1.67729 c 0.11072,0 0.13623,-0.017 0.17873,-0.11068 l 0.22136,-0.451243 c 0.0255,-0.06811 0.051,-0.11068 0.051,-0.144747 0,-0.04257 -0.0425,-0.08513 -0.11072,-0.08513 h -1.85608 l 0.43422,-2.026342 c 0.0174,-0.05109 0.034,-0.102158 0.034,-0.144747 0,-0.04257 -0.0174,-0.08514 -0.0852,-0.08514 -0.0255,0 -0.068,0.017 -0.0937,0.017 l -0.72371,0.204337 c -0.10222,0.02555 -0.11072,0.05109 -0.13622,0.144747 l -0.40016,1.890117 h -0.99555 c -0.11922,0 -0.14472,0.04257 -0.17022,0.161769 l -0.0765,0.332049 c -0.0425,0.187314 -0.0425,0.187314 -0.0425,0.212859 0,0.05959 0.0425,0.08514 0.11922,0.08514 h 0.98764 l -0.80032,3.780234 c -0.0425,0.221367 -0.12773,0.587471 -0.12773,0.808835 0,0.90249 0.49381,1.362248 1.2175,1.362248 0.88547,0 1.92417,-0.340562 1.92417,-0.613012 0,-0.04257 -0.0255,-0.11068 -0.0255,-0.144747 z m 5.5171,-0.383132 c -0.0255,-0.04257 -0.068,-0.08514 -0.11923,-0.08514 -0.19594,0 -0.74073,0.655581 -1.95823,0.655581 -0.88546,0 -1.26859,-0.527869 -1.26859,-1.506985 0,-0.102158 0.0174,-0.21286 0.0174,-0.340562 1.20048,-0.0085 4.20595,-0.0085 4.20595,-2.383933 0,-1.013172 -0.58747,-1.753895 -1.80499,-1.753895 -2.03485,0 -3.45669,2.12 -3.45669,4.444334 0,1.515501 0.67261,2.494615 2.21365,2.494615 1.31967,0 2.52867,-0.80032 2.52867,-0.970601 0,-0.02554 -0.0174,-0.03407 -0.0255,-0.05959 z m -3.22683,-2.119999 c 0.15323,-0.672608 0.59597,-2.443529 2.14553,-2.443529 0.67262,0 1.00466,0.366102 1.00466,0.936544 0,1.506985 -2.39245,1.506985 -3.15019,1.506985 m 13.60543,-5.746981 c 0,-0.127703 -0.051,-0.153248 -0.18723,-0.153248 h -0.61301 c -0.11072,0 -0.15322,0.0085 -0.20423,0.136225 l -2.80112,6.785694 c -0.15323,0.357591 -0.35759,1.055742 -0.46827,1.506988 l -0.0255,-0.02554 c 0.0425,-0.289479 0.13622,-1.166426 0.15323,-1.481445 l 0.32353,-6.811237 c 0,-0.11068 0,-0.204337 -0.0937,-0.204337 -0.0425,0 -0.0852,0.017 -0.12772,0.017 l -0.6641,0.127702 c -0.051,0.017 -0.11073,0.03405 -0.15323,0.05959 -0.0425,0.02554 -0.0425,0.09366 -0.0425,0.187314 l -0.17023,8.956776 c 0,0.153248 0.009,0.195815 0.17023,0.195815 h 0.82587 c 0.13622,0 0.17873,-0.04257 0.25543,-0.255422 l 2.88626,-7.253967 0.0255,0.02554 -0.38315,7.330594 c 0,0.127702 0.051,0.153247 0.19595,0.153247 h 0.77478 c 0.0937,0 0.17872,-0.02554 0.22988,-0.136225 l 3.74618,-9.016375 c 0.0255,-0.05109 0.051,-0.11068 0.051,-0.16177 0,-0.04257 -0.051,-0.06811 -0.11922,-0.08514 l -0.57897,-0.119202 c -0.051,-0.0085 -0.11072,-0.02555 -0.16172,-0.02555 -0.051,0 -0.11073,0.06811 -0.13623,0.144747 l -2.70747,6.947462 c -0.17873,0.434215 -0.3065,0.962087 -0.39163,1.336705 l -0.0255,-0.03407 c 0.034,-0.255423 0.11072,-1.038715 0.11922,-1.302649 z m 5.84916,3.099115 c 0.0255,-0.153248 0.068,-0.263936 0.068,-0.340562 0,-0.09366 -0.0255,-0.11068 -0.21295,-0.11068 H 229.862 c -0.0937,0 -0.13622,0.05109 -0.16173,0.144747 l -0.0937,0.442732 c -0.0174,0.05109 -0.0174,0.07664 -0.0174,0.102158 0,0.05959 0.0174,0.10218 0.11073,0.10218 h 1.08127 l -1.17493,5.525615 c -0.0174,0.04257 -0.034,0.11068 -0.034,0.170292 0,0.04257 0.0597,0.06811 0.13622,0.06811 h 0.7237 c 0.14472,0 0.15322,-0.153247 0.17872,-0.272449 z m 0.8429,-2.928832 c 0,-0.408674 -0.34909,-0.757752 -0.75776,-0.757752 -0.4257,0 -0.76626,0.349078 -0.76626,0.757752 0,0.425701 0.34056,0.766263 0.76626,0.766263 0.40867,0 0.75776,-0.340562 0.75776,-0.766263 m 4.52096,2.937345 c 0.0174,-0.02555 0.034,-0.06811 0.034,-0.102158 0,-0.238393 -0.75776,-0.553414 -1.55806,-0.553414 -1.21752,0 -2.26475,0.723695 -2.26475,2.009317 0,1.677266 2.12852,1.583611 2.12852,2.911803 0,0.681123 -0.56194,1.106827 -1.19197,1.106827 -1.02169,0 -1.55807,-0.493816 -1.71984,-0.493816 -0.068,0 -0.11072,0.04257 -0.15322,0.136225 l -0.21295,0.468273 c -0.0174,0.04257 -0.0595,0.09366 -0.0595,0.161769 0,0.187315 0.90248,0.638552 1.96674,0.638552 1.39631,0 2.40947,-0.834375 2.40947,-2.213652 0,-0.570442 -0.22136,-0.936544 -0.60449,-1.285619 -0.58748,-0.544899 -1.53253,-0.817349 -1.53253,-1.549558 0,-0.587468 0.45124,-0.9706 1.14938,-0.9706 0.74924,0 1.0813,0.29799 1.21753,0.29799 0.0937,0 0.13622,-0.05959 0.17872,-0.119202 z m 5.05734,0 c 0.0174,-0.02555 0.0255,-0.06811 0.0255,-0.102158 0,-0.238393 -0.74924,-0.553414 -1.55809,-0.553414 -1.20897,0 -2.26473,0.723695 -2.26473,2.009317 0,1.677266 2.13703,1.583611 2.13703,2.911803 0,0.681123 -0.56192,1.106827 -1.19198,1.106827 -1.03018,0 -1.55806,-0.493816 -1.71983,-0.493816 -0.068,0 -0.11072,0.04257 -0.15322,0.136225 l -0.21295,0.468273 c -0.0174,0.04257 -0.0595,0.09366 -0.0595,0.161769 0,0.187315 0.90248,0.638552 1.96673,0.638552 1.39632,0 2.40098,-0.834375 2.40098,-2.213652 0,-0.570442 -0.21295,-0.936544 -0.59599,-1.285619 -0.58746,-0.544899 -1.53254,-0.817349 -1.53254,-1.549558 0,-0.587468 0.45125,-0.9706 1.14941,-0.9706 0.74924,0 1.08128,0.29799 1.2175,0.29799 0.0937,0 0.12773,-0.05959 0.17023,-0.119202 z m 5.0999,4.759352 c -0.034,-0.04257 -0.0765,-0.08514 -0.12772,-0.08514 -0.18723,0 -0.73222,0.655581 -1.95824,0.655581 -0.88546,0 -1.26859,-0.527869 -1.26859,-1.506985 0,-0.102158 0.0174,-0.21286 0.0174,-0.340562 1.20048,-0.0085 4.20594,-0.0085 4.20594,-2.383933 0,-1.013172 -0.58746,-1.753895 -1.80499,-1.753895 -2.03484,0 -3.44818,2.12 -3.44818,4.444334 0,1.515501 0.6641,2.494615 2.20514,2.494615 1.3282,0 2.52868,-0.80032 2.52868,-0.970601 0,-0.02554 -0.009,-0.03407 -0.0255,-0.05959 z m -3.22682,-2.119999 c 0.14472,-0.672608 0.57896,-2.443529 2.14555,-2.443529 0.6641,0 0.99614,0.366102 0.99614,0.936544 0,1.506985 -2.39246,1.506985 -3.14169,1.506985 m 4.88706,3.27791 c -0.009,0.02555 -0.009,0.06811 -0.009,0.09366 0,0.05959 0.0425,0.08514 0.11072,0.08514 h 0.70665 c 0.11072,0 0.13622,-0.04257 0.16172,-0.136225 l 0.63006,-2.979917 c 0.18722,-0.902488 0.99614,-2.715979 2.46907,-2.715979 0.40867,0 0.62151,0.204337 0.62151,0.587469 0,0.178792 -0.0425,0.366104 -0.0852,0.544898 l -0.95358,4.520959 c -0.0174,0.02555 -0.0174,0.06811 -0.0174,0.09366 0,0.05959 0.0425,0.08514 0.11072,0.08514 h 0.70734 c 0.11073,0 0.13623,-0.04257 0.16173,-0.136225 l 0.97059,-4.563529 c 0.068,-0.315019 0.13623,-0.63004 0.13623,-0.953573 0,-0.723693 -0.52788,-1.098313 -1.24305,-1.098313 -1.209,0 -1.96675,0.740722 -2.46906,1.447388 h -0.0255 c 0,-0.119202 0.0425,-0.340561 0.0425,-0.613011 0,-0.417188 -0.15323,-0.834377 -0.26395,-0.834377 -0.0595,0 -0.11073,0.04257 -0.18723,0.06811 l -0.49383,0.212859 c -0.051,0.0085 -0.11922,0.05109 -0.11922,0.102158 0.051,0.272449 0.10222,0.544899 0.10222,0.817348 0,0.195815 -0.034,0.493814 -0.0937,0.783293 z m 10.94055,-5.917263 c 0.0174,-0.02555 0.0255,-0.06811 0.0255,-0.102158 0,-0.238393 -0.74923,-0.553414 -1.54956,-0.553414 -1.2175,0 -2.27325,0.723695 -2.27325,2.009317 0,1.677266 2.12852,1.583611 2.12852,2.911803 0,0.681123 -0.55342,1.106827 -1.18345,1.106827 -1.02169,0 -1.55808,-0.493816 -1.71983,-0.493816 -0.068,0 -0.11073,0.04257 -0.15323,0.136225 l -0.22136,0.468273 c -0.009,0.04257 -0.051,0.09366 -0.051,0.161769 0,0.187315 0.90251,0.638552 1.96676,0.638552 1.39629,0 2.40095,-0.834375 2.40095,-2.213652 0,-0.570442 -0.21294,-0.936544 -0.60449,-1.285619 -0.57896,-0.544899 -1.52401,-0.817349 -1.52401,-1.549558 0,-0.587468 0.45124,-0.9706 1.14939,-0.9706 0.74923,0 1.07277,0.29799 1.209,0.29799 0.10222,0 0.14472,-0.05959 0.17872,-0.119202 z m 4.63164,4.827465 c -0.0255,-0.04257 -0.068,-0.05959 -0.11072,-0.05959 -0.17873,0 -0.65558,0.561926 -1.55806,0.561926 -0.85992,0 -1.22603,-0.52787 -1.22603,-1.336705 0,-1.558071 0.72369,-3.729151 2.37541,-3.729151 0.39166,0 0.63004,0.07663 0.91101,0.187314 0.13622,0.05109 0.28947,0.178792 0.4172,0.178792 0.051,0 0.0937,-0.05109 0.13622,-0.127702 l 0.23838,-0.391645 c 0.0425,-0.05109 0.0852,-0.136225 0.0852,-0.212859 0,-0.195815 -0.80883,-0.553415 -1.68577,-0.553415 -2.2903,0 -3.51632,2.392449 -3.51632,4.657184 0,1.421846 0.59599,2.281764 1.92419,2.281764 1.15791,0 2.25621,-0.681124 2.25621,-0.868432 0,-0.04257 -0.0425,-0.08514 -0.0425,-0.110679 z m 1.35375,1.089798 c -0.0174,0.02555 -0.0174,0.06811 -0.0174,0.09366 0,0.05959 0.0425,0.08514 0.11073,0.08514 h 0.71519 c 0.10222,0 0.13622,-0.04257 0.16172,-0.136225 l 0.63004,-2.979917 c 0.18722,-0.902488 0.98764,-2.715979 2.46906,-2.715979 0.40868,0 0.61302,0.204337 0.61302,0.587469 0,0.178792 -0.0425,0.366104 -0.0765,0.544898 l -0.96209,4.520959 c -0.009,0.02555 -0.009,0.06811 -0.009,0.09366 0,0.05959 0.034,0.08514 0.11072,0.08514 h 0.70665 c 0.11072,0 0.13622,-0.04257 0.16172,-0.136225 l 0.97062,-4.563529 c 0.051,-0.315019 0.13623,-0.63004 0.13623,-0.953573 0,-0.723693 -0.5364,-1.098313 -1.24307,-1.098313 -1.2175,0 -1.96674,0.740722 -2.46907,1.447388 l -0.034,-0.02554 c 0.17873,-0.425702 0.2469,-0.732207 0.31502,-1.021686 l 0.72369,-3.431159 c 0.0174,-0.06811 0,-0.11068 -0.0937,-0.11068 -0.051,0 -0.0937,0.03407 -0.11923,0.03407 l -0.68112,0.16177 c -0.10223,0.02555 -0.12773,0.136225 -0.14473,0.212859 z m 10.98311,-3.209797 c -0.2384,1.081284 -0.99614,2.664898 -2.16257,2.664898 -0.63003,0 -0.83437,-0.476787 -0.83437,-1.149397 0,-1.191966 0.65558,-3.959031 2.16257,-3.959031 0.65558,0 1.10682,0.459757 1.22602,0.587469 z m 1.60915,-2.93735 c 0.009,-0.06811 0.0255,-0.11068 0.0255,-0.144747 0,-0.04257 -0.051,-0.08513 -0.11073,-0.08513 h -0.59599 c -0.0852,0 -0.11072,0.08513 -0.12772,0.119202 l -0.18723,0.425701 c -0.26395,-0.29799 -0.5449,-0.740722 -1.43888,-0.740722 -2.21364,0 -3.20978,3.158711 -3.20978,4.938149 0,1.18345 0.53638,2.000799 1.54954,2.000799 1.13236,0 1.79646,-0.928031 2.12853,-1.4559 l 0.0255,0.02554 c -0.051,0.09366 -0.051,0.332049 -0.051,0.595985 0,0.425701 0.14472,0.834375 0.2554,0.834375 0.0597,0 0.11072,-0.04257 0.19595,-0.06811 l 0.48528,-0.204337 c 0.0597,-0.017 0.12773,-0.05109 0.12773,-0.102158 -0.0597,-0.280963 -0.11073,-0.553412 -0.11073,-0.825862 0,-0.315019 0.0852,-0.859918 0.11923,-1.081284 z m 5.17654,0.561928 c 0.0937,0 0.11923,-0.04257 0.17873,-0.16177 l 0.11923,-0.332048 c 0.068,-0.187314 0.068,-0.187314 0.068,-0.212859 0,-0.05959 -0.0425,-0.08514 -0.11072,-0.08514 h -1.9242 l 0.24693,-1.191967 c 0.11072,-0.502329 0.17873,-1.353731 1.13237,-1.353731 0.60449,0 1.08979,0.332046 1.2175,0.332046 0.0425,0 0.0852,-0.04257 0.0937,-0.06811 l 0.2469,-0.587468 c 0,-0.017 0.0174,-0.02555 0.0174,-0.04257 0,-0.161769 -0.78328,-0.425703 -1.4644,-0.425703 -1.80499,0 -2.03487,1.260079 -2.19662,2.026344 l -0.28097,1.311162 h -0.95358 c -0.11922,0 -0.14472,0.04257 -0.17022,0.16177 l -0.068,0.332048 c -0.0425,0.187314 -0.0425,0.187314 -0.0425,0.212859 0,0.05959 0.0425,0.08513 0.11072,0.08513 h 0.95358 l -1.17494,6.087542 c -0.10222,0.510842 -0.31501,1.583613 -1.43886,1.583613 -0.39165,0 -0.79182,-0.119202 -0.84289,-0.119202 -0.0425,0 -0.0852,0.04257 -0.0937,0.08514 l -0.19595,0.553413 c -0.009,0.02554 -0.009,0.06811 -0.009,0.102157 0,0.16177 0.58747,0.255421 1.03871,0.255421 2.04337,0 2.38394,-1.600639 2.53718,-2.40096 l 1.15791,-6.147141 z m 3.3886,4.810436 c -0.0174,-0.06811 -0.0425,-0.102158 -0.10222,-0.102158 -0.18723,0 -0.61301,0.400161 -1.26859,0.400161 -0.45124,0 -0.63856,-0.136225 -0.63856,-0.638554 0,-0.170292 0.0255,-0.485303 0.068,-0.68964 l 0.80033,-3.780234 h 1.68579 c 0.11072,0 0.12772,-0.017 0.17872,-0.11068 l 0.21273,-0.451244 c 0.034,-0.06811 0.0597,-0.11068 0.0597,-0.144747 0,-0.04257 -0.0425,-0.08514 -0.11072,-0.08514 h -1.85608 l 0.43422,-2.026342 c 0.0174,-0.05109 0.0255,-0.102157 0.0255,-0.144747 0,-0.04257 -0.009,-0.08514 -0.0852,-0.08514 -0.0255,0 -0.0595,0.017 -0.0937,0.017 l -0.72369,0.204337 c -0.0937,0.02555 -0.10223,0.05109 -0.13623,0.144747 l -0.39165,1.890117 h -0.99614 c -0.11923,0 -0.15323,0.04257 -0.17873,0.16177 l -0.068,0.332048 c -0.0425,0.187315 -0.0425,0.187315 -0.0425,0.21286 0,0.05959 0.0425,0.08513 0.11072,0.08513 h 0.99614 l -0.80033,3.780234 c -0.0425,0.221366 -0.12772,0.587471 -0.12772,0.808835 0,0.90249 0.49381,1.362247 1.2175,1.362247 0.88546,0 1.92419,-0.340562 1.92419,-0.613011 0,-0.04257 -0.0255,-0.11068 -0.0255,-0.144747 z m 5.5171,-0.383132 c -0.0255,-0.04257 -0.068,-0.08514 -0.12772,-0.08514 -0.18723,0 -0.73219,0.655581 -1.94972,0.655581 -0.88546,0 -1.26859,-0.52787 -1.26859,-1.506986 0,-0.102157 0.009,-0.212859 0.009,-0.340561 1.20898,-0.0085 4.20592,-0.0085 4.20592,-2.383933 0,-1.013172 -0.57894,-1.753895 -1.79644,-1.753895 -2.03487,0 -3.45671,2.119999 -3.45671,4.444333 0,1.515502 0.6641,2.494615 2.21364,2.494615 1.31968,0 2.52868,-0.800319 2.52868,-0.9706 0,-0.02555 -0.0174,-0.03407 -0.034,-0.05959 z m -3.22682,-2.119999 c 0.15322,-0.672608 0.58746,-2.44353 2.14552,-2.44353 0.67263,0 0.99615,0.366103 0.99615,0.936544 0,1.506986 -2.39244,1.506986 -3.14167,1.506986 m 4.89556,3.277909 c -0.0174,0.02555 -0.0174,0.06811 -0.0174,0.09366 0,0.05959 0.0425,0.08514 0.11072,0.08514 h 0.70667 c 0.11072,0 0.13622,-0.04257 0.17023,-0.136225 l 0.62153,-2.979917 c 0.19573,-0.902488 0.99614,-2.715979 2.47759,-2.715979 0.40867,0 0.61301,0.204337 0.61301,0.587468 0,0.178792 -0.0425,0.366105 -0.0852,0.544899 l -0.95357,4.520959 c -0.0174,0.02555 -0.0174,0.06811 -0.0174,0.09366 0,0.05959 0.0425,0.08514 0.11072,0.08514 h 0.71517 c 0.10222,0 0.13623,-0.04257 0.16173,-0.136224 l 0.97059,-4.563529 c 0.068,-0.315019 0.13623,-0.630041 0.13623,-0.953573 0,-0.723694 -0.53638,-1.098314 -1.24305,-1.098314 -1.2175,0 -1.96673,0.740723 -2.47759,1.447389 h -0.0255 c 0,-0.119202 0.0425,-0.340562 0.0425,-0.613011 0,-0.417188 -0.15322,-0.834378 -0.26392,-0.834378 -0.051,0 -0.10223,0.04257 -0.18723,0.06811 l -0.49381,0.212859 c -0.051,0.0085 -0.11922,0.05109 -0.11922,0.102158 0.051,0.272449 0.11072,0.544898 0.11072,0.817348 0,0.195815 -0.0425,0.493814 -0.0937,0.783292 z m 0,0" id="path746"/>
</svg>